<svg xmlns="http://www.w3.org/2000/svg" width="900" height="900" viewBox="0 0 900 900">
  <defs>
    <linearGradient id="g2" x1="0" y1="1" x2="1" y2="0">
      <stop offset="0" stop-color="#7CFF6B"/>
      <stop offset="0.40" stop-color="#00E5FF"/>
      <stop offset="1" stop-color="#FFB800"/>
    </linearGradient>
    <filter id="blur2" x="-20%" y="-20%" width="140%" height="140%">
      <feGaussianBlur stdDeviation="30"/>
    </filter>
    <radialGradient id="r2" cx="35%" cy="35%" r="70%">
      <stop offset="0" stop-color="#FFFFFF" stop-opacity="0.28"/>
      <stop offset="1" stop-color="#FFFFFF" stop-opacity="0"/>
    </radialGradient>
  </defs>
  <rect width="900" height="900" fill="#070511"/>
  <g filter="url(#blur2)">
    <path d="M170,270 C240,140 420,110 560,180 C720,260 820,390 760,540 C690,715 520,790 360,720 C220,650 120,520 170,270 Z" fill="url(#g2)" opacity="0.95"/>
    <circle cx="660" cy="620" r="170" fill="#7CFF6B" opacity="0.22"/>
    <circle cx="260" cy="240" r="170" fill="#FFB800" opacity="0.18"/>
  </g>
  <circle cx="360" cy="320" r="280" fill="url(#r2)"/>
  <g fill="none" stroke="#FFFFFF" stroke-opacity="0.14" stroke-width="2">
    <path d="M120 510 C240 440 320 360 460 330 C650 290 760 360 850 450"/>
    <path d="M140 650 C260 580 360 540 520 520 C690 495 780 540 860 610"/>
    <path d="M140 380 C280 270 420 230 560 250 C720 270 820 360 860 480"/>
  </g>
  <g>
    <circle cx="450" cy="410" r="108" fill="#0B0818" stroke="#FFFFFF" stroke-opacity="0.18"/>
    <path d="M246 782 C270 654 354 594 450 594 C546 594 630 654 654 782" fill="#0B0818" stroke="#FFFFFF" stroke-opacity="0.18"/>
  </g>
</svg>
