<svg xmlns="http://www.w3.org/2000/svg" width="900" height="900" viewBox="0 0 900 900">
  <defs>
    <linearGradient id="g" x1="0" y1="0" x2="1" y2="1">
      <stop offset="0" stop-color="#00E5FF"/>
      <stop offset="0.45" stop-color="#B400FF"/>
      <stop offset="1" stop-color="#FF2BD6"/>
    </linearGradient>
    <filter id="blur" x="-20%" y="-20%" width="140%" height="140%">
      <feGaussianBlur stdDeviation="28"/>
    </filter>
    <radialGradient id="r" cx="35%" cy="35%" r="70%">
      <stop offset="0" stop-color="#FFFFFF" stop-opacity="0.30"/>
      <stop offset="1" stop-color="#FFFFFF" stop-opacity="0"/>
    </radialGradient>
  </defs>
  <rect width="900" height="900" fill="#070511"/>
  <g filter="url(#blur)">
    <path d="M128,476 C110,264 336,120 510,160 C692,202 818,308 760,482 C710,635 510,780 328,724 C192,682 148,610 128,476 Z" fill="url(#g)" opacity="0.95"/>
    <circle cx="630" cy="260" r="160" fill="#00E5FF" opacity="0.35"/>
    <circle cx="260" cy="660" r="190" fill="#FF2BD6" opacity="0.25"/>
  </g>
  <circle cx="360" cy="320" r="280" fill="url(#r)"/>
  <g fill="none" stroke="#FFFFFF" stroke-opacity="0.14" stroke-width="2">
    <path d="M140 580 C220 450 280 380 460 320 C640 260 740 300 820 420"/>
    <path d="M100 420 C220 300 360 250 520 250 C680 250 800 340 850 460"/>
    <path d="M120 700 C260 600 380 540 520 520 C660 500 780 560 860 660"/>
  </g>
  <g>
    <circle cx="450" cy="410" r="108" fill="#0B0818" stroke="#FFFFFF" stroke-opacity="0.18"/>
    <path d="M246 782 C270 654 354 594 450 594 C546 594 630 654 654 782" fill="#0B0818" stroke="#FFFFFF" stroke-opacity="0.18"/>
  </g>
</svg>
