<svg xmlns="http://www.w3.org/2000/svg" width="480" height="300" viewBox="0 0 480 300">
  <defs>
    <linearGradient id="g" x1="0" y1="0" x2="1" y2="1">
      <stop offset="0" stop-color="#FF2D8B" stop-opacity="0.16"/>
      <stop offset="1" stop-color="#FF2D8B" stop-opacity="0.10"/>
    </linearGradient>
    <pattern id="grid" width="24" height="24" patternUnits="userSpaceOnUse">
      <path d="M24 0H0V24" fill="none" stroke="rgba(11,16,32,0.08)" stroke-width="1"/>
    </pattern>
  </defs>
  <rect x="0" y="0" width="480" height="300" rx="18" fill="rgba(255,255,255,0.92)"/>
  <rect x="0" y="0" width="480" height="300" rx="18" fill="url(#grid)" opacity="0.55"/>
  <rect x="0" y="0" width="480" height="300" rx="18" fill="url(#g)"/>
  <rect x="10" y="10" width="460" height="280" rx="14" fill="rgba(247,251,255,0.88)" stroke="rgba(11,16,32,0.16)" stroke-width="2"/>
  <rect x="10" y="10" width="460" height="36" rx="14" fill="rgba(11,16,32,0.04)"/>
  <circle cx="32" cy="28" r="6" fill="rgba(255,45,139,0.65)"/>
  <circle cx="52" cy="28" r="6" fill="rgba(0,210,255,0.65)"/>
  <circle cx="72" cy="28" r="6" fill="rgba(124,255,0,0.55)"/>
  <text x="240.0" y="32" text-anchor="middle" font-family="ui-monospace, SFMono-Regular, Menlo, Monaco, Consolas, Liberation Mono, Courier New, monospace" font-size="12" letter-spacing="2" fill="rgba(11,16,32,0.62)">PHOTOSHOP • LAYERS</text>
  <g transform="translate(22,56)">
    
  <rect x="0" y="0" width="74" height="212" rx="10" fill="rgba(11,16,32,0.035)" stroke="rgba(11,16,32,0.14)" stroke-width="1.5"/>
  <text x="12" y="18" font-family="ui-monospace, SFMono-Regular, Menlo" font-size="10" fill="rgba(11,16,32,0.55)" letter-spacing="2">TOOLS</text>
  <rect x="12" y="30" width="50" height="10" rx="5" fill="rgba(11,16,32,0.06)"/><rect x="12" y="44" width="50" height="10" rx="5" fill="rgba(11,16,32,0.06)"/><rect x="12" y="58" width="50" height="10" rx="5" fill="rgba(11,16,32,0.06)"/><rect x="12" y="72" width="50" height="10" rx="5" fill="rgba(11,16,32,0.06)"/><rect x="12" y="86" width="50" height="10" rx="5" fill="rgba(11,16,32,0.06)"/><rect x="12" y="100" width="50" height="10" rx="5" fill="rgba(11,16,32,0.06)"/><rect x="12" y="114" width="50" height="10" rx="5" fill="rgba(11,16,32,0.06)"/><rect x="12" y="128" width="50" height="10" rx="5" fill="rgba(11,16,32,0.06)"/><rect x="12" y="142" width="50" height="10" rx="5" fill="rgba(11,16,32,0.06)"/>
  <rect x="88" y="0" width="248" height="212" rx="12" fill="rgba(11,16,32,0.03)" stroke="rgba(11,16,32,0.14)" stroke-width="1.5"/>
  <text x="100" y="18" font-family="ui-monospace, SFMono-Regular, Menlo" font-size="10" fill="rgba(11,16,32,0.55)" letter-spacing="2">CANVAS</text>
  <rect x="110" y="38" width="204" height="150" rx="10" fill="rgba(247,251,255,0.70)" stroke="rgba(11,16,32,0.12)" stroke-width="1.5"/>
  <path d="M130 160l36-42 30 26 26-36 52 60H130z" fill="rgba(0,210,255,0.18)"/>
  <rect x="132" y="54" width="60" height="14" rx="7" fill="rgba(255,45,139,0.18)"/>
  <rect x="352" y="0" width="84" height="212" rx="10" fill="rgba(11,16,32,0.035)" stroke="rgba(11,16,32,0.14)" stroke-width="1.5"/>
  <text x="362" y="18" font-family="ui-monospace, SFMono-Regular, Menlo" font-size="10" fill="rgba(11,16,32,0.55)" letter-spacing="2">LAYERS</text>
  <rect x="362" y="32" width="64" height="12" rx="6" fill="rgba(11,16,32,0.06)"/><rect x="362" y="50" width="64" height="12" rx="6" fill="rgba(11,16,32,0.06)"/><rect x="362" y="68" width="64" height="12" rx="6" fill="rgba(11,16,32,0.06)"/><rect x="362" y="86" width="64" height="12" rx="6" fill="rgba(11,16,32,0.06)"/><rect x="362" y="104" width="64" height="12" rx="6" fill="rgba(11,16,32,0.06)"/><rect x="362" y="122" width="64" height="12" rx="6" fill="rgba(11,16,32,0.06)"/><rect x="362" y="140" width="64" height="12" rx="6" fill="rgba(11,16,32,0.06)"/>
  <rect x="362" y="32" width="64" height="12" rx="6" fill="rgba(0,210,255,0.14)"/>

  </g>
  <path d="M16 70h448" stroke="rgba(11,16,32,0.10)" stroke-width="1"/>
  <path d="M16 282h448" stroke="rgba(0,210,255,0.22)" stroke-width="2"/>
</svg>