<svg xmlns="http://www.w3.org/2000/svg" width="480" height="300" viewBox="0 0 480 300">
  <defs>
    <linearGradient id="g" x1="0" y1="0" x2="1" y2="1">
      <stop offset="0" stop-color="#00D2FF" stop-opacity="0.16"/>
      <stop offset="1" stop-color="#FF2D8B" stop-opacity="0.10"/>
    </linearGradient>
    <pattern id="grid" width="24" height="24" patternUnits="userSpaceOnUse">
      <path d="M24 0H0V24" fill="none" stroke="rgba(11,16,32,0.08)" stroke-width="1"/>
    </pattern>
  </defs>
  <rect x="0" y="0" width="480" height="300" rx="18" fill="rgba(255,255,255,0.92)"/>
  <rect x="0" y="0" width="480" height="300" rx="18" fill="url(#grid)" opacity="0.55"/>
  <rect x="0" y="0" width="480" height="300" rx="18" fill="url(#g)"/>
  <rect x="10" y="10" width="460" height="280" rx="14" fill="rgba(247,251,255,0.88)" stroke="rgba(11,16,32,0.16)" stroke-width="2"/>
  <rect x="10" y="10" width="460" height="36" rx="14" fill="rgba(11,16,32,0.04)"/>
  <circle cx="32" cy="28" r="6" fill="rgba(255,45,139,0.65)"/>
  <circle cx="52" cy="28" r="6" fill="rgba(0,210,255,0.65)"/>
  <circle cx="72" cy="28" r="6" fill="rgba(124,255,0,0.55)"/>
  <text x="240.0" y="32" text-anchor="middle" font-family="ui-monospace, SFMono-Regular, Menlo, Monaco, Consolas, Liberation Mono, Courier New, monospace" font-size="12" letter-spacing="2" fill="rgba(11,16,32,0.62)">PREMIERE • TIMELINE</text>
  <g transform="translate(22,56)">
    
  <rect x="0" y="0" width="110" height="212" rx="10" fill="rgba(11,16,32,0.035)" stroke="rgba(11,16,32,0.14)" stroke-width="1.5"/>
  <text x="10" y="18" font-family="ui-monospace, SFMono-Regular, Menlo" font-size="10" fill="rgba(11,16,32,0.55)" letter-spacing="2">PROJECT</text>
  <rect x="10" y="30" width="90" height="12" rx="6" fill="rgba(0,210,255,0.16)"/>
  <rect x="10" y="48" width="70" height="10" rx="5" fill="rgba(11,16,32,0.06)"/>
  <rect x="10" y="64" width="84" height="10" rx="5" fill="rgba(11,16,32,0.06)"/>
  <rect x="124" y="0" width="214" height="120" rx="12" fill="rgba(11,16,32,0.03)" stroke="rgba(11,16,32,0.14)" stroke-width="1.5"/>
  <text x="136" y="18" font-family="ui-monospace, SFMono-Regular, Menlo" font-size="10" fill="rgba(11,16,32,0.55)" letter-spacing="2">PREVIEW</text>
  <path d="M196 42l48 30-48 30z" fill="rgba(0,210,255,0.32)"/>
  <rect x="124" y="132" width="214" height="80" rx="12" fill="rgba(11,16,32,0.03)" stroke="rgba(11,16,32,0.14)" stroke-width="1.5"/>
  <text x="136" y="150" font-family="ui-monospace, SFMono-Regular, Menlo" font-size="10" fill="rgba(11,16,32,0.55)" letter-spacing="2">TIMELINE</text>
  <path d="M136 166h190" stroke="rgba(11,16,32,0.18)" stroke-width="2" stroke-linecap="round"/>
  <rect x="136" y="176" width="46" height="10" rx="5" fill="rgba(255,45,139,0.35)"/>
  <rect x="188" y="176" width="62" height="10" rx="5" fill="rgba(0,210,255,0.30)"/>
  <rect x="256" y="176" width="44" height="10" rx="5" fill="rgba(124,255,0,0.26)"/>
  <path d="M210 162v44" stroke="rgba(0,210,255,0.55)" stroke-width="2"/>
  <rect x="350" y="0" width="86" height="212" rx="10" fill="rgba(11,16,32,0.035)" stroke="rgba(11,16,32,0.14)" stroke-width="1.5"/>
  <text x="360" y="18" font-family="ui-monospace, SFMono-Regular, Menlo" font-size="10" fill="rgba(11,16,32,0.55)" letter-spacing="2">EFFECTS</text>
  <rect x="360" y="34" width="66" height="10" rx="5" fill="rgba(11,16,32,0.06)"/>
  <rect x="360" y="50" width="72" height="10" rx="5" fill="rgba(0,210,255,0.14)"/>
  <rect x="360" y="66" width="58" height="10" rx="5" fill="rgba(11,16,32,0.06)"/>

  </g>
  <path d="M16 70h448" stroke="rgba(11,16,32,0.10)" stroke-width="1"/>
  <path d="M16 282h448" stroke="rgba(0,210,255,0.22)" stroke-width="2"/>
</svg>