<svg xmlns="http://www.w3.org/2000/svg" width="480" height="300" viewBox="0 0 480 300">
  <defs>
    <linearGradient id="g" x1="0" y1="0" x2="1" y2="1">
      <stop offset="0" stop-color="#00D2FF" stop-opacity="0.16"/>
      <stop offset="1" stop-color="#FF2D8B" stop-opacity="0.10"/>
    </linearGradient>
    <pattern id="grid" width="24" height="24" patternUnits="userSpaceOnUse">
      <path d="M24 0H0V24" fill="none" stroke="rgba(11,16,32,0.08)" stroke-width="1"/>
    </pattern>
  </defs>
  <rect x="0" y="0" width="480" height="300" rx="18" fill="rgba(255,255,255,0.92)"/>
  <rect x="0" y="0" width="480" height="300" rx="18" fill="url(#grid)" opacity="0.55"/>
  <rect x="0" y="0" width="480" height="300" rx="18" fill="url(#g)"/>
  <rect x="10" y="10" width="460" height="280" rx="14" fill="rgba(247,251,255,0.88)" stroke="rgba(11,16,32,0.16)" stroke-width="2"/>
  <rect x="10" y="10" width="460" height="36" rx="14" fill="rgba(11,16,32,0.04)"/>
  <circle cx="32" cy="28" r="6" fill="rgba(255,45,139,0.65)"/>
  <circle cx="52" cy="28" r="6" fill="rgba(0,210,255,0.65)"/>
  <circle cx="72" cy="28" r="6" fill="rgba(124,255,0,0.55)"/>
  <text x="240.0" y="32" text-anchor="middle" font-family="ui-monospace, SFMono-Regular, Menlo, Monaco, Consolas, Liberation Mono, Courier New, monospace" font-size="12" letter-spacing="2" fill="rgba(11,16,32,0.62)">UGC • NATIVE</text>
  <g transform="translate(22,56)">
    
  <text x="10" y="18" font-family="ui-monospace, SFMono-Regular, Menlo" font-size="10" fill="rgba(11,16,32,0.55)" letter-spacing="2">UGC_FEED</text>
  <rect x="138" y="30" width="138" height="182" rx="22" fill="rgba(11,16,32,0.03)" stroke="rgba(11,16,32,0.14)" stroke-width="1.5"/>
  <rect x="150" y="46" width="114" height="88" rx="12" fill="rgba(0,210,255,0.12)" stroke="rgba(11,16,32,0.10)" stroke-width="1.2"/>
  <rect x="150" y="142" width="114" height="10" rx="5" fill="rgba(11,16,32,0.06)"/>
  <rect x="150" y="158" width="84" height="10" rx="5" fill="rgba(11,16,32,0.06)"/>
  <rect x="150" y="174" width="92" height="10" rx="5" fill="rgba(11,16,32,0.06)"/>
  <circle cx="207" cy="200" r="6" fill="rgba(255,45,139,0.30)"/>
  <path d="M206 198l10 6-10 6z" fill="rgba(0,210,255,0.40)"/>
  <rect x="10" y="52" width="112" height="20" rx="10" fill="rgba(255,45,139,0.12)"/>
  <rect x="10" y="84" width="112" height="20" rx="10" fill="rgba(0,210,255,0.12)"/>
  <rect x="292" y="52" width="112" height="20" rx="10" fill="rgba(124,255,0,0.10)"/>
  <rect x="292" y="84" width="112" height="20" rx="10" fill="rgba(11,16,32,0.06)"/>

  </g>
  <path d="M16 70h448" stroke="rgba(11,16,32,0.10)" stroke-width="1"/>
  <path d="M16 282h448" stroke="rgba(0,210,255,0.22)" stroke-width="2"/>
</svg>